<svg width="21" height="20" viewBox="0 0 21 20" fill="none" xmlns="http://www.w3.org/2000/svg">
<g id="flat-color-icons:google">
<path id="Vector" d="M18.6723 8.36788H18.0011V8.33329H10.5011V11.6666H15.2106C14.5236 13.607 12.6773 15 10.5011 15C7.73981 15 5.50106 12.7612 5.50106 9.99996C5.50106 7.23871 7.73981 4.99996 10.5011 4.99996C11.7756 4.99996 12.9352 5.48079 13.8181 6.26621L16.1752 3.90913C14.6869 2.52204 12.6961 1.66663 10.5011 1.66663C5.89897 1.66663 2.16772 5.39788 2.16772 9.99996C2.16772 14.602 5.89897 18.3333 10.5011 18.3333C15.1031 18.3333 18.8344 14.602 18.8344 9.99996C18.8344 9.44121 18.7769 8.89579 18.6723 8.36788Z" fill="#FFC107"/>
<path id="Vector_2" d="M3.12805 6.12121L5.86597 8.12913C6.6068 6.29496 8.40097 4.99996 10.5006 4.99996C11.7751 4.99996 12.9347 5.48079 13.8176 6.26621L16.1747 3.90913C14.6864 2.52204 12.6956 1.66663 10.5006 1.66663C7.29972 1.66663 4.52389 3.47371 3.12805 6.12121Z" fill="#FF3D00"/>
<path id="Vector_3" d="M10.5004 18.3332C12.6529 18.3332 14.6087 17.5095 16.0875 16.1699L13.5083 13.9874C12.6436 14.6451 11.5869 15.0008 10.5004 14.9999C8.33291 14.9999 6.4925 13.6178 5.79917 11.6891L3.08167 13.7828C4.46083 16.4816 7.26167 18.3332 10.5004 18.3332Z" fill="#4CAF50"/>
<path id="Vector_4" d="M18.671 8.36771H17.9998V8.33313H10.4998V11.6665H15.2093C14.8807 12.59 14.2887 13.397 13.5064 13.9877L13.5077 13.9869L16.0868 16.1694C15.9043 16.3352 18.8331 14.1665 18.8331 9.9998C18.8331 9.44105 18.7756 8.89563 18.671 8.36771Z" fill="#1976D2"/>
</g>
</svg>
