<svg width="94" height="27" viewBox="0 0 94 27" fill="none" xmlns="http://www.w3.org/2000/svg">
<g id="Claro">
<path d="M12.9602 26.3978C9.27677 26.3978 6.20725 25.2041 3.71753 22.8167C1.22781 20.3952 0 17.2916 0 13.5058C0 9.686 1.26191 6.54827 3.75163 4.09266C6.27546 1.60294 9.34498 0.375132 12.9943 0.375132C17.4963 0.375132 21.4866 2.31916 23.8058 5.35457L19.7472 9.61779C17.8032 7.53734 15.6886 6.48006 13.4036 6.48006C11.4595 6.48006 9.85656 7.12807 8.52644 8.4582C7.23042 9.78832 6.58241 11.4595 6.58241 13.4717C6.58241 15.4158 7.23042 17.0529 8.52644 18.383C9.85656 19.679 11.4595 20.327 13.3695 20.327C15.8592 20.327 18.0419 19.2356 19.8496 17.087L24.0787 21.1455C22.9191 22.6803 21.3502 23.9422 19.4062 24.9313C17.4621 25.9203 15.3135 26.3978 12.9602 26.3978Z" fill="white"/>
<path d="M32.4639 -3.05176e-05V26.0227H26.4613V-3.05176e-05H32.4639Z" fill="white"/>
<path d="M50.1685 8.90157V7.19628H55.8301V26.0227H50.1685V24.3856C48.6337 25.7839 46.792 26.5001 44.6093 26.5001C41.9149 26.5001 39.7321 25.5452 37.9927 23.6353C36.2534 21.7253 35.4007 19.372 35.4007 16.5413C35.4007 13.7105 36.2534 11.3572 37.9927 9.51548C39.7321 7.63966 41.949 6.7188 44.6093 6.7188C46.792 6.7188 48.6337 7.43502 50.1685 8.90157ZM50.1003 16.5754C50.1003 15.3817 49.691 14.3585 48.8384 13.5058C47.9857 12.6532 46.9626 12.2098 45.7348 12.2098C44.4728 12.2098 43.4497 12.6532 42.6311 13.5058C41.8126 14.3585 41.4033 15.3817 41.4033 16.5754C41.4033 17.8032 41.8126 18.8605 42.6311 19.7131C43.4838 20.5657 44.5069 21.0091 45.7348 21.0091C46.9626 21.0091 47.9857 20.5657 48.8384 19.7131C49.691 18.8605 50.1003 17.8032 50.1003 16.5754Z" fill="white"/>
<path d="M65.6371 26.0227H59.6345V7.19628H65.3983V9.51548C66.592 7.63966 68.2632 6.6847 70.4119 6.6847C71.2304 6.6847 72.0148 6.85523 72.7652 7.19628L72.2877 12.9261C71.4009 12.6191 70.5824 12.4827 69.798 12.4827C67.0354 12.4827 65.6371 14.2903 65.6371 17.9055V26.0227Z" fill="white"/>
<path d="M83.7342 26.5343C80.6988 26.5343 78.2431 25.5793 76.3332 23.6694C74.4574 21.7594 73.5024 19.4061 73.5024 16.6095C73.5024 13.8128 74.4574 11.4595 76.3332 9.54958C78.2431 7.60555 80.6988 6.65059 83.7342 6.65059C86.7696 6.65059 89.2593 7.60555 91.1351 9.54958C93.045 11.4595 94 13.8128 94 16.6095C94 19.4061 93.045 21.7594 91.1351 23.6694C89.2593 25.5793 86.7696 26.5343 83.7342 26.5343ZM83.7342 20.9068C84.9279 20.9068 85.951 20.4975 86.7696 19.679C87.5881 18.8263 87.9974 17.8032 87.9974 16.5754C87.9974 15.3817 87.5881 14.3585 86.7355 13.54C85.9169 12.7214 84.9279 12.3122 83.7342 12.3122C82.5405 12.3122 81.5514 12.7214 80.7329 13.5741C79.9143 14.3926 79.5051 15.3817 79.5051 16.5754C79.5051 17.8032 79.9143 18.8263 80.7329 19.679C81.5514 20.4975 82.5405 20.9068 83.7342 20.9068Z" fill="white"/>
</g>
</svg>
